<svg xmlns="http://www.w3.org/2000/svg" xml:space="preserve" width="100" height="100" viewBox="0 0 1500 1500" data-version="1" data-id="lg_EQLLQcsDqeEosCoCBC" x="0" y="0"><rect width="1500" height="1500" id="background" stroke="transparent" fill="#2d2d2d"></rect><g id="outer-wrapper" data-padding="20" transform="matrix(1.7889087656529516,0,0,1.7889087656529516,-591.6815742397137,-591.6815742397137)"><g id="inner-wrapper" transform="matrix(0.9555555555555556,0,0,0.9555555555555556,10,12.422222222222217)"><rect width="449.841" height="559.35" x="148.99810465116303" y="92.03872093023261" fill="none" rx="0" ry="0" transform="translate(400.5 400.17)"></rect><path fill="#fff" d="M621.118104651163 932.2237209302326Q600.808104651163 931.7337209302326 583.288104651163 921.3437209302326T558.7581046511631 893.0637209302326L569.628104651163 853.6737209302327L596.458104651163 855.8437209302326V853.6737209302327L613.1381046511631 643.3937209302327L572.288104651163 631.0637209302326Q573.9781046511631 609.3137209302326 583.048104651163 587.5637209302326Q592.108104651163 565.8037209302327 617.4881046511631 552.9937209302327Q625.948104651163 553.9637209302327 642.0181046511631 558.1937209302328Q658.098104651163 562.4237209302327 677.068104651163 569.0737209302326Q696.038104651163 575.7137209302327 714.048104651163 584.0537209302327Q732.048104651163 592.3937209302327 744.6181046511631 602.0637209302326L786.198104651163 793.0037209302327L788.1281046511631 792.7637209302327L794.4081046511631 739.5837209302326Q797.558104651163 721.7037209302327 801.058104651163 702.1237209302327T807.828104651163 665.3837209302327Q811.088104651163 648.2237209302327 813.268104651163 637.3537209302327Q806.498104651163 634.4437209302328 800.328104651163 631.5437209302327Q794.1681046511629 628.6437209302328 789.578104651163 625.9937209302327Q791.508104651163 604.2337209302327 804.318104651163 583.4537209302327Q817.128104651163 562.6637209302328 841.538104651163 552.9937209302327Q851.208104651163 554.4437209302328 867.8881046511631 560.7337209302327Q884.568104651163 567.0137209302327 903.058104651163 576.0737209302328Q921.548104651163 585.1437209302327 937.3781046511631 595.0537209302327T961.188104651163 613.4237209302328Q960.458104651163 631.3037209302327 959.1281046511631 659.3437209302327T955.3881046511631 720.6137209302327Q952.9681046511631 753.8437209302327 948.9781046511631 788.1737209302328Q944.9881046511631 822.4937209302327 939.1881046511631 853.1837209302328L984.1481046511632 846.6637209302328L991.8781046511632 886.7837209302327Q989.9481046511632 889.6837209302327 985.9581046511632 896.9337209302327T974.8381046511632 912.4037209302327T956.8381046511632 926.4237209302327Q945.9581046511632 932.2237209302326 930.4881046511632 932.2237209302326Q909.2181046511632 932.2237209302326 892.4181046511632 920.5037209302326Q875.6181046511631 908.7737209302326 872.7181046511631 885.3337209302326Q871.2681046511632 873.9737209302326 870.0681046511631 852.5837209302326Q868.8581046511632 831.1937209302326 867.6481046511632 807.9837209302326Q866.1981046511631 779.4637209302326 865.5881046511631 748.6537209302326Q864.9881046511631 717.8337209302326 865.1081046511631 690.2837209302327Q865.2281046511631 662.7237209302326 865.7081046511631 644.3537209302326L861.1181046511632 643.6337209302326L814.2281046511632 849.3237209302326Q821.9681046511632 865.9937209302326 825.4681046511632 883.1537209302326Q828.9781046511632 900.3137209302325 832.1181046511632 918.9237209302325Q822.6881046511631 925.6937209302325 810.2381046511632 928.8337209302325Q797.7981046511632 931.9837209302325 784.2581046511632 931.9837209302325Q766.1281046511632 931.9837209302325 748.8481046511632 926.6637209302324T720.6981046511632 912.4037209302325Q720.6981046511632 907.3237209302324 721.4181046511633 896.8137209302324Q722.1481046511633 886.3037209302324 724.3181046511633 875.3037209302324Q726.4981046511632 864.3037209302324 730.5981046511632 858.2637209302325L660.7481046511632 643.3937209302323L656.1581046511632 645.0837209302324Q657.6081046511632 652.3337209302324 660.5081046511632 671.1837209302324Q663.4081046511632 690.0437209302324 666.9181046511633 715.6637209302324Q670.4181046511633 741.2837209302324 673.5581046511633 769.1937209302324Q676.7081046511632 797.1137209302324 678.9981046511632 822.8537209302324Q681.2981046511633 848.5937209302324 681.5381046511633 867.4437209302324Q681.7781046511633 884.8537209302324 676.5781046511632 899.5937209302324Q671.3881046511633 914.3337209302324 659.1781046511633 923.2837209302324Q646.9781046511633 932.2237209302325 625.7081046511634 932.2237209302325Z "></path></g><rect width="450" height="559" x="525" y="470.5" id="space-saver" fill="transparent" stroke="transparent"></rect></g></svg>